<svg id="Capa_1" enable-background="new 0 0 512 512" height="65" viewBox="0 0 512 512" width="512" xmlns="http://www.w3.org/2000/svg"><g><path d="m447.137 109.678c-35.36-8.204-60.056-39.286-60.056-75.585v-11.578l-43.65-11.355c-57.198-14.88-117.665-14.88-174.862 0l-43.65 11.355v11.578c0 36.299-24.696 67.381-60.056 75.585l-11.591 2.689v153.381c0 105.09 66.685 198.905 165.936 233.447l36.792 12.805 36.792-12.804c99.251-34.541 165.936-128.357 165.936-233.447v-153.382zm-18.359 25.782v25.338h-114.701c-12.857-7.982-27.463-13.396-43.102-15.526v-34.937h117.885c11.274 11.189 24.949 19.807 39.918 25.125zm-157.803 266.576v-37.931c13.598-1.852 26.417-6.184 37.983-12.531h102.118c-7.824 18.156-18.078 35.132-30.427 50.463h-109.674zm-14.975-227.833c44.38 0 80.486 36.106 80.486 80.485 0 44.38-36.106 80.486-80.486 80.486s-80.486-36.106-80.486-80.486c0-44.379 36.106-80.485 80.486-80.485zm87.776 147.42c11.044-14.448 18.611-31.688 21.431-50.463h63.496c-.429 17.295-2.911 34.208-7.246 50.463zm21.836-80.412c-2.279-18.643-9.216-35.866-19.617-50.463h82.783v50.463zm-7.831-195.371c1.33 11.989 4.691 23.683 9.863 34.546h-96.669v-50.086c21.865 1.028 43.638 4.309 64.916 9.844zm-274.559 219.909v-130.289c18.907-6.717 35.763-18.683 48.304-34.466 12.606-15.866 20.469-35.106 22.692-55.154l21.892-5.695c21.278-5.535 43.051-8.816 64.915-9.844v114.972c-53.836 7.331-95.461 53.6-95.461 109.416s41.624 102.085 95.461 109.416v110.972l-11.973-4.167c-87.225-30.357-145.83-112.805-145.83-205.161zm199.725 205.161-11.972 4.167v-43.091h80.37c-19.856 16.721-42.902 30.051-68.398 38.924z"/><path d="m263.89 270.908c-1.528.692-4.074 1.036-7.638 1.036-4.146 0-8.474-.636-12.983-1.909-4.511-1.271-8.584-2.963-12.221-5.074l-8.292 18.766c3.273 2.038 7.401 3.748 12.384 5.128 4.982 1.38 10.202 2.218 15.657 2.509v11.566h15.384v-12.11c8.146-1.454 14.419-4.454 18.821-9.001 4.401-4.545 6.601-9.875 6.601-15.985 0-5.527-1.473-9.891-4.418-13.092-2.946-3.2-6.421-5.51-10.42-6.929-4.001-1.419-8.911-2.673-14.729-3.764-4.511-.873-7.747-1.691-9.712-2.455-1.964-.763-2.945-1.909-2.945-3.437 0-3.2 3.309-4.801 9.929-4.801 6.691 0 13.784 1.892 21.276 5.673l7.747-18.657c-6.039-3.418-13.421-5.527-22.15-6.328v-11.674h-15.384v11.893c-8.657 1.238-15.295 4.146-19.913 8.729-4.619 4.582-6.928 10.076-6.928 16.475 0 5.529 1.455 9.912 4.364 13.147 2.909 3.238 6.328 5.565 10.256 6.983 3.928 1.419 8.838 2.746 14.73 3.983 4.583.946 7.873 1.819 9.875 2.619 2 .801 3 2.002 3 3.6 0 1.383-.763 2.419-2.291 3.109z"/></g></svg>